<?xml version="1.0" encoding="utf-8"?>
<!-- Generator: Adobe Illustrator 25.0.0, SVG Export Plug-In . SVG Version: 6.00 Build 0)  -->
<svg version="1.1" id="Layer_1" xmlns="http://www.w3.org/2000/svg" xmlns:xlink="http://www.w3.org/1999/xlink" x="0px" y="0px"
	 viewBox="0 0 644.72 699.89" style="enable-background:new 0 0 644.72 699.89;" xml:space="preserve">
<style type="text/css">
	.st0{fill:#FFFFFF;}
</style>

<path class="st0" d="M382.32,661.19c-28.69,2.22-60.02-8.19-72.31-36.26C256.58,513.3,204.05,401.25,151.43,289.24
	c-22.82-48.5-45.69-96.98-68.56-145.46c-16.8-38.3-38.06-75.14-52.31-114.34C27.63,14.58,42.72,7.82,55.24,8.02
	c70.56,1.4,141.14,2.67,211.7,4.11c34,0.85,62.37,6.21,77.73,39.86c41.67,82.6,82.97,165.39,124.42,248.1
	c53.18,106.32,106.29,212.68,159.41,319.02c8.31,16.63-0.44,30.97-19.07,31.82c-38.93,1.78-77.84,3.91-116.77,5.71
	C455.89,658.33,419.09,659.41,382.32,661.19z"/>
</svg>
