<?xml version="1.0" encoding="utf-8"?>
<!-- Generator: Adobe Illustrator 25.0.0, SVG Export Plug-In . SVG Version: 6.00 Build 0)  -->
<svg version="1.1" id="Layer_1" xmlns="http://www.w3.org/2000/svg" xmlns:xlink="http://www.w3.org/1999/xlink" x="0px" y="0px"
	 viewBox="0 0 644.72 700.11" style="enable-background:new 0 0 644.72 700.11;" xml:space="preserve">
<style type="text/css">
	.st0{fill:#FFFFFF;}
</style>

<path class="st0" d="M634.52,604.08c-21.44-42.85-43.09-85.59-64.68-128.37C494.89,333.1,428.74,184.92,349.05,45.2
	c-3.94-6.9-9.06-13.09-15.29-18.02c-14.72-11.67-33.68-18.37-51.87-20.92C220.29,2.63,158.35,4.65,96.86,0h-54
	C19.08,3.54,12.67,27.55,0,43.82v20.49c65.27,144.11,133.43,286.94,200.04,430.45c23.12,49.44,46.09,98.94,69.47,148.25
	c12.35,29.72,36.36,44.65,64.35,56.99H0v0.11h374.01c9.6-0.91,136.95-6.89,180.79-9.1c21.53-2.48,48.13,3.44,64.1-14.7
	c8.97-12.89,23.65-23.98,24.03-40.85C643.37,624.07,639.42,613.88,634.52,604.08z"/>
</svg>
